<?xml version="1.0" encoding="iso-8859-1"?>
<!-- Generator: Adobe Illustrator 19.0.0, SVG Export Plug-In . SVG Version: 6.00 Build 0)  -->
<svg version="1.1" id="Capa_1" xmlns="http://www.w3.org/2000/svg" xmlns:xlink="http://www.w3.org/1999/xlink" x="0px" y="0px"
	 viewBox="0 0 512.002 512.002" style="enable-background:new 0 0 512.002 512.002;" xml:space="preserve">
<g>
	<g>
		<path d="M378.051,278.314c-4.143,0-7.5,3.358-7.5,7.5v71.753c0,6.943-5.648,12.591-12.591,12.591H154.826
			c-6.943,0-12.591-5.648-12.591-12.591v-71.4c0-4.142-3.358-7.5-7.5-7.5c-4.142,0-7.5,3.358-7.5,7.5v71.4
			c0,15.214,12.378,27.591,27.591,27.591H357.96c15.214,0,27.591-12.377,27.591-27.591v-71.753
			C385.551,281.672,382.194,278.314,378.051,278.314z"/>
	</g>
</g>
<g>
	<g>
		<path d="M357.96,126.842H154.826c-15.214,0-27.591,12.377-27.591,27.591v77.567c0,4.142,3.358,7.5,7.5,7.5
			c4.142,0,7.5-3.358,7.5-7.5v-77.567c0-6.943,5.648-12.591,12.591-12.591H357.96c6.942,0,12.591,5.648,12.591,12.591v78.38
			c0,4.142,3.357,7.5,7.5,7.5s7.5-3.358,7.5-7.5v-78.38C385.551,139.219,373.173,126.842,357.96,126.842z"/>
	</g>
</g>
<g>
	<g>
		<path d="M301.979,219.347c-46.465-38.247-122.553-33.86-125.86-33.646c-0.257,0.016-0.512,0.046-0.764,0.088
			c-0.067,0.011-0.131,0.03-0.197,0.042c-0.176,0.034-0.351,0.07-0.524,0.116c-0.111,0.03-0.219,0.069-0.328,0.104
			c-0.125,0.04-0.25,0.077-0.372,0.124c-0.117,0.044-0.231,0.097-0.346,0.148c-0.111,0.049-0.223,0.095-0.332,0.149
			c-0.111,0.055-0.218,0.117-0.326,0.178c-0.109,0.061-0.218,0.121-0.324,0.187c-0.099,0.062-0.193,0.129-0.289,0.195
			c-0.111,0.077-0.221,0.154-0.328,0.237c-0.084,0.065-0.165,0.135-0.246,0.204c-0.112,0.095-0.223,0.192-0.33,0.294
			c-0.07,0.067-0.139,0.137-0.207,0.208c-0.109,0.113-0.216,0.228-0.318,0.348c-0.028,0.033-0.06,0.062-0.088,0.096
			c-0.032,0.039-0.059,0.082-0.09,0.122c-0.098,0.124-0.193,0.252-0.283,0.383c-0.056,0.081-0.11,0.162-0.162,0.244
			c-0.08,0.126-0.156,0.255-0.229,0.386c-0.053,0.096-0.105,0.193-0.154,0.291c-0.06,0.122-0.117,0.246-0.171,0.372
			c-0.049,0.113-0.095,0.227-0.139,0.343c-0.021,0.057-0.048,0.111-0.068,0.169c-0.023,0.066-0.037,0.133-0.058,0.199
			c-0.037,0.118-0.072,0.236-0.103,0.355c-0.035,0.134-0.066,0.268-0.094,0.402c-0.022,0.107-0.042,0.214-0.059,0.321
			c-0.024,0.15-0.043,0.299-0.057,0.449c-0.009,0.096-0.018,0.191-0.024,0.287c-0.01,0.161-0.013,0.32-0.012,0.48
			c0,0.09,0.001,0.18,0.005,0.27c0.007,0.164,0.021,0.326,0.038,0.489c0.006,0.057,0.006,0.114,0.013,0.171
			c0.104,0.8,2.64,19.876,10.833,43.771c11.128,32.459,26.73,57.116,46.373,73.286c20.596,16.955,39.059,21.965,53.688,21.965
			c6.133,0,11.593-0.881,16.253-2.132c17.273-4.637,27.45-15.256,27.875-15.706c0.011-0.012,0.021-0.026,0.032-0.039
			c0.214-0.229,0.412-0.469,0.593-0.72c0.007-0.01,0.017-0.019,0.024-0.029c0.359-0.503,8.825-12.53,10.057-30.374
			C336.918,254.657,318.112,232.628,301.979,219.347z M235.894,299.628c-30.16-24.828-43.728-69.232-48.995-92.406
			c27.041,16.396,87.681,58.748,121.546,101.826C297.994,316.49,271.51,328.947,235.894,299.628z M317.303,296.133
			c-31.318-38.194-80.967-74.877-111.824-94.813c25.134,2.043,61.641,8.761,86.967,29.61
			C324.353,257.195,321.949,282.711,317.303,296.133z"/>
	</g>
</g>
<g>
	<g>
		<path d="M460.45,449.597c2.832-12.645,15.146-74.365,15.146-191.231c0-121.113-12.326-183.288-15.15-195.937l8.685-45.518
			c0.672-3.52-1.24-7.023-4.564-8.362l-19.866-8.005c-1.799-0.725-3.81-0.725-5.606,0l-28.174,11.352L382.753,0.545
			c-1.799-0.725-3.809-0.725-5.607,0l-28.169,11.353L320.809,0.545c-1.799-0.725-3.809-0.725-5.607,0l-28.167,11.352L258.871,0.545
			c-1.798-0.725-3.808-0.726-5.608,0l-28.162,11.352L196.933,0.545c-1.799-0.725-3.809-0.725-5.607,0l-28.167,11.352L134.993,0.545
			c-1.799-0.726-3.809-0.726-5.607,0l-28.165,11.352L73.407,0.685c-0.897-0.362-1.81-0.564-2.825-0.544l-0.705,0.002
			c-0.954,0.002-1.898,0.187-2.783,0.544l-19.66,7.925c-3.33,1.342-5.242,4.856-4.56,8.381l8.741,45.159
			c-2.714,11.98-15.209,73.81-15.209,196.214c0,118.115,12.482,179.52,15.205,191.508l-8.736,45.134
			c-0.683,3.525,1.229,7.04,4.56,8.381l19.661,7.924c0.885,0.357,1.829,0.542,2.783,0.544l0.705,0.002
			c1.017,0.009,1.927-0.182,2.825-0.544l27.813-11.21l28.165,11.352c1.799,0.726,3.809,0.726,5.607,0l28.165-11.352l28.167,11.352
			c1.799,0.726,3.809,0.725,5.607,0l28.167-11.352l28.163,11.352c1.798,0.725,3.809,0.725,5.608,0l28.163-11.352l28.167,11.352
			c1.799,0.726,3.809,0.725,5.607,0l28.168-11.353l28.169,11.353c1.799,0.725,3.809,0.725,5.607,0l28.168-11.353l28.174,11.353
			c0.898,0.362,1.851,0.543,2.803,0.543c0.952,0,1.904-0.181,2.804-0.543l19.865-8.005c3.324-1.339,5.236-4.843,4.564-8.362
			L460.45,449.597z M70.255,15.587L98.419,26.94c1.799,0.726,3.809,0.726,5.607,0l28.165-11.352l28.165,11.352
			c1.799,0.726,3.809,0.726,5.607,0l28.167-11.352l28.167,11.352c1.799,0.726,3.809,0.726,5.607,0l28.163-11.352L284.23,26.94
			c1.799,0.726,3.809,0.726,5.607,0l28.167-11.352l28.168,11.352c1.799,0.726,3.809,0.725,5.607,0l28.169-11.353l28.168,11.352
			c1.799,0.726,3.81,0.725,5.606,0l28.174-11.353l11.344,4.571l-6.53,34.222H65.389l-6.613-34.167L70.255,15.587z M51.407,258.366
			c0-97.666,8.506-162.96,13.962-188.987h381.2c3.625,18.047,14.027,79.404,14.027,188.986c0,94.249-8.501,158.417-13.958,184.296
			H65.42C61.785,424.781,51.407,364.412,51.407,258.366z M441.898,496.414l-28.174-11.353c-0.899-0.362-1.851-0.543-2.803-0.543
			c-0.952,0-1.904,0.181-2.804,0.543l-28.168,11.353l-28.169-11.353c-1.799-0.725-3.809-0.725-5.607,0l-28.168,11.353
			l-28.167-11.352c-1.799-0.726-3.809-0.726-5.607,0l-28.164,11.352l-28.163-11.352c-1.799-0.726-3.809-0.726-5.607,0
			l-28.167,11.352l-28.167-11.352c-1.799-0.726-3.809-0.726-5.607,0l-28.165,11.352l-28.165-11.352
			c-1.799-0.726-3.809-0.726-5.607,0l-28.164,11.352l-11.478-4.626l6.606-34.126h381.335l6.523,34.182L441.898,496.414z"/>
	</g>
</g>
<g>
</g>
<g>
</g>
<g>
</g>
<g>
</g>
<g>
</g>
<g>
</g>
<g>
</g>
<g>
</g>
<g>
</g>
<g>
</g>
<g>
</g>
<g>
</g>
<g>
</g>
<g>
</g>
<g>
</g>
</svg>
