<svg id="Capa_1" enable-background="new 0 0 512 512" height="512" viewBox="0 0 512 512" width="512" xmlns="http://www.w3.org/2000/svg"><g><path d="m152.778 295.38c-1.874 3.983-1.332 8.622 1.543 12.088 6.08 7.329 11.359 15.368 15.691 23.896 1.875 3.693 6.393 5.167 10.083 3.29 3.693-1.876 5.166-6.39 3.29-10.083-3.68-7.245-7.974-14.176-12.809-20.682h170.852c-15.737 21.209-25.505 46.783-28.004 73.337h-114.846c-.545-5.833-1.438-11.641-2.667-17.343-.873-4.048-4.862-6.623-8.912-5.751-4.049.873-6.624 4.863-5.751 8.912 1.558 7.224 2.609 15.155 2.891 23.339.174 5.07 2.242 9.833 5.821 13.412l18.037 18.037v15.97c-3.383.725-5.92 3.733-5.92 7.333s2.537 6.607 5.92 7.333v12.844c-3.383.725-5.92 3.733-5.92 7.333s2.537 6.607 5.92 7.333v2.674c0 5.828 2.192 11.381 6.174 15.637l9.783 10.458c4.312 4.609 10.405 7.253 16.716 7.253h30.66c6.312 0 12.404-2.644 16.716-7.253l9.783-10.458h.001c3.98-4.256 6.173-9.809 6.173-15.637v-2.674c3.384-.726 5.92-3.733 5.92-7.333s-2.536-6.607-5.92-7.333v-12.844c3.384-.726 5.92-3.733 5.92-7.333s-2.536-6.607-5.92-7.333v-15.97l18.037-18.037c3.579-3.58 5.646-8.343 5.821-13.419.972-29.211 11.865-57.269 29.818-78.909 2.691-3.243 3.51-7.658 1.54-12.091 4.492-5.192 8.631-10.523 12.354-15.918 2.353-3.409 1.496-8.08-1.913-10.433-3.407-2.354-8.08-1.497-10.433 1.912-4.212 6.103-9.015 12.13-14.302 17.951h-81.425v-14.196l15.09-15.09c16.83 11.816 40.818 10.334 56.537-5.387 7.812-7.811 16.171-23.548 21.298-40.094 4.367-14.096 7.697-32.775-1.243-41.716-8.941-8.942-27.622-5.611-41.717-1.244-16.545 5.126-32.283 13.486-40.094 21.297-.001 0-.001 0-.001 0-15.886 15.888-17.06 39.91-5.386 56.538l-11.984 11.984-11.984-11.984c12.945-18.439 9.428-44.232-8.069-58.991-3.167-2.671-7.898-2.269-10.568.897-2.671 3.166-2.27 7.898.896 10.569 10.86 9.155 13.622 24.759 6.877 36.661l-18.159-18.159v-10.036c0-4.142-3.358-7.5-7.5-7.5-2.721 0-5.104 1.449-6.418 3.618l-10.103-10.103c-2.929-2.929-7.678-2.929-10.606 0-2.929 2.929-2.929 7.678 0 10.606l18.439 18.439c-3.111.914-5.383 3.79-5.383 7.196 0 4.142 3.358 7.5 7.5 7.5h12.58l9.045 9.045c-10.811 6.127-25.293 4.645-35.067-5.13-6.026-6.026-13.253-19.977-17.575-33.927-5.159-16.649-3.861-25.286-2.477-26.67 1.761-1.762 12.468-2.491 30.333 3.678 3.913 1.351 8.185-.726 9.537-4.642 1.352-3.915-.726-8.185-4.642-9.537-12.754-4.405-35.669-10.275-45.836-.106-8.941 8.94-5.611 27.62-1.244 41.716 5.126 16.545 13.486 32.283 21.297 40.094 15.716 15.717 39.703 17.206 56.537 5.387l15.09 15.09v14.196h-81.427c-25.603-28.164-38.58-59.488-38.58-93.151 0-70.308 57.2-127.507 127.507-127.507s127.508 57.2 127.508 127.507c0 15.625-2.852 30.951-8.476 45.55-1.488 3.865.438 8.206 4.303 9.694 3.866 1.489 8.206-.437 9.695-4.303 6.289-16.326 9.478-33.465 9.478-50.941 0-78.579-63.929-142.507-142.508-142.507s-142.507 63.929-142.507 142.507c-.001 36.078 13.209 69.562 39.285 99.644zm70.219 138.255v-11.409h66.006v11.409zm66.006 15v12.51h-66.006v-12.51zm4.393-41.409h-74.792l-15-15h104.792zm-6.521 76.816-9.782 10.458c-1.487 1.589-3.587 2.5-5.763 2.5h-30.66c-2.176 0-4.276-.911-5.762-2.5l-9.783-10.458c-1.372-1.467-2.128-3.381-2.128-5.39v-2.507h66.006v2.507c0 2.009-.756 3.923-2.128 5.39zm-2.898-280.977c6.025-6.026 19.977-13.253 33.927-17.575 16.649-5.159 25.287-3.862 26.67-2.478 1.384 1.384 2.681 10.021-2.478 26.67-4.322 13.95-11.55 27.901-17.576 33.927-9.784 9.786-24.277 11.251-35.067 5.131l9.046-9.046h12.579c4.143 0 7.5-3.358 7.5-7.5 0-3.407-2.271-6.283-5.383-7.196l18.439-18.439c2.929-2.929 2.929-7.678 0-10.606-2.93-2.929-7.678-2.929-10.607 0l-10.102 10.103c-1.315-2.168-3.697-3.617-6.418-3.617-4.143 0-7.5 3.358-7.5 7.5v10.035l-18.159 18.159c-6.104-10.77-4.678-25.261 5.129-35.068z"/><path d="m263.5 32.731v-25.231c0-4.142-3.357-7.5-7.5-7.5-4.142 0-7.5 3.358-7.5 7.5v25.231c0 4.142 3.358 7.5 7.5 7.5s7.5-3.357 7.5-7.5z"/><path d="m376.566 85.778 17.842-17.841c2.929-2.929 2.929-7.677 0-10.606s-7.677-2.929-10.607 0l-17.842 17.841c-2.929 2.929-2.929 7.677 0 10.606s7.677 2.93 10.607 0z"/><path d="m444.238 203.238c4.143 0 7.5-3.358 7.5-7.5s-3.357-7.5-7.5-7.5h-25.231c-4.143 0-7.5 3.358-7.5 7.5s3.357 7.5 7.5 7.5z"/><path d="m146.04 85.778c2.929-2.929 2.929-7.678 0-10.606l-17.842-17.841c-2.929-2.929-7.678-2.929-10.606 0-2.929 2.929-2.929 7.678 0 10.606l17.842 17.841c2.929 2.93 7.677 2.929 10.606 0z"/><path d="m100.493 195.738c0-4.142-3.358-7.5-7.5-7.5h-25.231c-4.142 0-7.5 3.358-7.5 7.5s3.358 7.5 7.5 7.5h25.231c4.142 0 7.5-3.358 7.5-7.5z"/><path d="m147.714 150.106c-2.099 4.965 1.577 10.423 6.904 10.423 2.923 0 5.701-1.72 6.911-4.581 16.112-38.1 53.194-62.719 94.47-62.719 4.143 0 7.5-3.358 7.5-7.5s-3.357-7.5-7.5-7.5c-47.316.001-89.821 28.214-108.285 71.877z"/></g></svg>