<svg id="Capa_1" enable-background="new 0 0 506.508 506.508" height="512" viewBox="0 0 506.508 506.508" width="512" xmlns="http://www.w3.org/2000/svg"><g id="XMLID_1164_"><path id="XMLID_1165_" d="m263.56 244.259h-30v34.268h-34.27v30h34.27v34.27h30v-34.27h34.269v-30h-34.269z"/><path id="XMLID_1179_" d="m501.435 53.865c-8.396-17.252-25.53-27.97-44.718-27.97-14.685 0-28.539 6.438-38.011 17.662l-108.859 129.019h-294.847c-8.284 0-15 6.716-15 15s6.716 15 15 15h7.942v128.253c0 38.112 25.63 70.33 60.553 80.381v69.402h328.432v-68.919c35.79-9.48 62.25-42.135 62.25-80.864v-128.253h6.245c8.284 0 15-6.716 15-15s-6.716-15-15-15h-36.524l51.955-66.261c11.839-15.099 13.978-35.197 5.582-52.45zm-387.94 396.747v-36.133h268.432v36.133zm330.682-248.036v128.253c0 29.583-24.068 53.65-53.651 53.65h-283.932c-29.583 0-53.651-24.067-53.651-53.65v-128.253zm28.068-114.772-66.47 84.772h-56.675l92.535-109.672c3.759-4.454 9.256-7.009 15.082-7.009 7.729 0 14.361 4.148 17.743 11.098s2.554 14.729-2.215 20.811z"/></g></svg>