<svg viewBox="0 -3 512 512" xmlns="http://www.w3.org/2000/svg"><path d="m498.128906 439.820312v-12.082031c0-18.566406-15.105468-33.675781-33.675781-33.675781h-41.960937v-28.300781h23.136718c21.714844 0 39.378906-17.667969 39.378906-39.382813v-24.59375c0-7.46875-6.074218-13.542968-13.539062-13.542968h-24.597656c-9.199219 0-17.667969 3.183593-24.378906 8.492187v-33.125c.730468-.488281 1.429687-1.050781 2.074218-1.699219l17.390625-17.390625c15.355469-15.355469 15.355469-40.339843 0-55.695312l-17.390625-17.390625c-2.558594-2.554688-5.957031-3.964844-9.574218-3.964844-3.617188 0-7.019532 1.410156-9.578126 3.964844l-17.390624 17.390625c-15.351563 15.355469-15.351563 40.339843 0 55.695312l17.390624 17.390625c.648438.644532 1.34375 1.207032 2.074219 1.695313v5.457031c-6.710937-5.308594-15.179687-8.488281-24.378906-8.488281h-24.597656c-7.464844 0-13.539063 6.074219-13.539063 13.539062v24.597657c0 21.714843 17.667969 39.378906 39.382813 39.378906h23.132812v55.972656h-48.402343c-4.140626 0-7.5 3.359375-7.5 7.5s3.359374 7.5 7.5 7.5h48.402343v11.90625c0 4.140625 3.359375 7.5 7.5 7.5 4.144531 0 7.5-3.359375 7.5-7.5v-11.90625h41.960938c10.300781 0 18.679687 8.378906 18.679687 18.675781v11.699219h-454.257812v-11.699219c0-10.296875 8.375-18.675781 18.675781-18.675781h41.960937v11.90625c0 4.144531 3.359376 7.5 7.5 7.5 4.140626 0 7.5-3.355469 7.5-7.5v-11.90625h143.992188v11.90625c0 4.144531 3.359375 7.5 7.5 7.5s7.5-3.355469 7.5-7.5v-11.90625h61.410156c4.144532 0 7.5-3.355469 7.5-7.5 0-4.140625-3.355468-7.5-7.5-7.5h-61.410156v-28.300781h23.136719c21.714843 0 39.382812-17.667969 39.382812-39.382813v-24.59375c0-7.46875-6.074219-13.542968-13.542969-13.542968h-24.59375c-9.203124 0-17.671874 3.183593-24.382812 8.492187v-33.125c.734375-.488281 1.429688-1.050781 2.074219-1.699219l17.390625-17.390625c15.355468-15.355469 15.355468-40.339843 0-55.695312l-17.390625-17.390625c-2.554688-2.554688-5.957031-3.964844-9.574219-3.964844s-7.015625 1.410156-9.574219 3.964844l-17.390625 17.390625c-15.355468 15.355469-15.355468 40.339843 0 55.695312l17.390625 17.390625c.644531.644532 1.339844 1.207032 2.074219 1.695313v5.457031c-6.714844-5.308594-15.179688-8.488281-24.382812-8.488281h-24.59375c-7.46875 0-13.542969 6.074219-13.542969 13.539062v24.597657c0 21.714843 17.667969 39.378906 39.382812 39.378906h23.136719v55.972656h-143.992188v-28.304688h23.136719c21.714844 0 39.382813-17.667968 39.382813-39.382812v-24.589844c0-7.46875-6.074219-13.542968-13.542969-13.542968h-24.59375c-9.203125 0-17.671875 3.183593-24.382813 8.492187v-33.125c.734376-.488281 1.429688-1.050781 2.074219-1.699219l17.390625-17.390625c15.355469-15.355469 15.355469-40.335937 0-55.691406l-17.390625-17.390625c-2.558593-2.558594-5.957031-3.96875-9.574219-3.96875-3.617187 0-7.019531 1.410156-9.574218 3.96875l-17.390625 17.390625c-15.355469 15.355469-15.355469 40.335937 0 55.691406l17.390625 17.390625c.644531.648438 1.339844 1.210938 2.074218 1.699219v5.457031c-6.710937-5.308594-15.179687-8.492187-24.382812-8.492187h-24.59375c-7.464844 0-13.542969 6.074219-13.542969 13.542969v24.59375c0 21.714843 17.667969 39.382812 39.382813 39.382812h23.136718v55.96875h-41.960937c-18.570313 0-33.675781 15.109375-33.675781 33.675781v12.082031c-7.914063 1.675782-13.871094 8.710938-13.871094 17.117188v31.628906c0 9.652344 7.851562 17.5 17.5 17.5h59.503906c4.609375 0 8.964844-1.777344 12.257813-5.007812l14.164062-13.90625c.46875-.460938 1.09375-.714844 1.75-.714844h27.734375c4.140625 0 7.5-3.359375 7.5-7.5s-3.359375-7.5-7.5-7.5h-27.734375c-4.613281 0-8.964843 1.78125-12.257812 5.011719l-14.164063 13.902343c-.472656.460938-1.09375.714844-1.75.714844h-59.503906c-1.378906 0-2.5-1.121094-2.5-2.5v-31.628906c0-1.378906 1.121094-2.5 2.5-2.5h477c1.378906 0 2.5 1.121094 2.5 2.5v31.628906c0 1.378906-1.121094 2.5-2.5 2.5h-59.503906c-.65625 0-1.277344-.253906-1.75-.714844l-14.164063-13.902343c-3.292969-3.230469-7.644531-5.011719-12.257812-5.011719h-239.734375c-4.144532 0-7.5 3.359375-7.5 7.5s3.355468 7.5 7.5 7.5h239.730468c.660157 0 1.28125.253906 1.753907.714844l14.164062 13.90625c3.292969 3.230468 7.648438 5.007812 12.257813 5.007812h59.503906c9.648438 0 17.5-7.847656 17.5-17.5v-31.628906c0-8.40625-5.957031-15.441406-13.871094-17.117188zm-51.253906-136.578124h23.132812v23.136718c0 13.441406-10.9375 24.382813-24.378906 24.382813h-12.855468l18.617187-18.621094c2.929687-2.925781 2.929687-7.675781 0-10.605469-2.925781-2.929687-7.675781-2.929687-10.605469 0l-18.292968 18.292969v-12.203125c0-13.445312 10.9375-24.382812 24.382812-24.382812zm-48.242188-69.328126c-9.507812-9.507812-9.507812-24.976562 0-34.480468l16.359376-16.359375 16.359374 16.359375c9.503907 9.503906 9.503907 24.972656 0 34.480468l-9.089843 9.089844v-26.332031c0-4.140625-3.359375-7.5-7.5-7.5-4.144531 0-7.5 3.359375-7.5 7.5v25.871094zm-38.65625 64.796876v-23.136719h23.132813c13.445313 0 24.382813 10.941406 24.382813 24.382812v12.203125l-18.292969-18.289062c-2.929688-2.929688-7.675781-2.929688-10.605469 0-2.929688 2.929687-2.929688 7.675781 0 10.605468l18.617188 18.617188h-12.851563c-13.449219 0-24.382813-10.9375-24.382813-24.382812zm-72.09375 4.53125h23.132813v23.136718c0 13.441406-10.9375 24.382813-24.378906 24.382813h-12.855469l18.617188-18.621094c2.929687-2.925781 2.929687-7.675781 0-10.605469-2.929688-2.929687-7.675782-2.929687-10.605469 0l-18.292969 18.292969v-12.203125c0-13.445312 10.9375-24.382812 24.382812-24.382812zm-48.242187-69.328126c-9.507813-9.507812-9.507813-24.976562 0-34.480468l16.359375-16.359375 16.359375 16.359375c9.503906 9.503906 9.503906 24.972656 0 34.480468l-9.089844 9.089844v-26.332031c0-4.140625-3.359375-7.5-7.5-7.5s-7.5 3.359375-7.5 7.5v25.871094zm-38.660156 64.796876v-23.136719h23.136719c13.445312 0 24.382812 10.941406 24.382812 24.382812v12.203125l-18.292969-18.289062c-2.929687-2.929688-7.679687-2.929688-10.605469 0-2.929687 2.929687-2.929687 7.675781 0 10.605468l18.617188 18.617188h-12.855469c-13.441406 0-24.382812-10.9375-24.382812-24.382812zm-72.089844 4.53125h23.132813v23.136718c0 13.441406-10.9375 24.382813-24.378907 24.382813h-12.855469l18.617188-18.621094c2.929688-2.925781 2.929688-7.675781 0-10.605469-2.929688-2.929687-7.675781-2.929687-10.605469 0l-18.292969 18.292969v-12.203125c0-13.445312 10.9375-24.382812 24.382813-24.382812zm-48.242187-69.328126c-9.507813-9.507812-9.507813-24.976562 0-34.480468l16.359374-16.359375 16.359376 16.359375c9.503906 9.503906 9.503906 24.972656 0 34.480468l-9.089844 9.089844v-26.332031c0-4.140625-3.359375-7.5-7.5-7.5s-7.5 3.359375-7.5 7.5v25.871094zm-38.65625 64.796876v-23.136719h23.132812c13.445312 0 24.382812 10.941406 24.382812 24.382812v12.203125l-18.292968-18.292968c-2.929688-2.925782-7.679688-2.925782-10.605469 0-2.929687 2.929687-2.929687 7.679687 0 10.609374l18.617187 18.617188h-12.855468c-13.441406 0-24.378906-10.9375-24.378906-24.382812zm0 0"/><path d="m17.507812 61.605469h3.027344v11.957031c0 9.644531 7.847656 17.492188 17.496094 17.492188h435.9375c9.648438 0 17.496094-7.847657 17.496094-17.492188v-11.957031h3.027344c5.929687 0 11.402343-2.964844 14.648437-7.925781 3.242187-4.960938 3.757813-11.164063 1.378906-16.59375l-11.664062-26.613282c-2.789063-6.363281-9.078125-10.472656-16.027344-10.472656h-393.738281c-4.144532 0-7.5 3.359375-7.5 7.5 0 4.144531 3.355468 7.5 7.5 7.5h393.738281c.992187 0 1.890625.585938 2.289063 1.496094l11.664062 26.613281c.472656 1.074219.078125 1.941406-.199219 2.363281-.273437.421875-.914062 1.132813-2.089843 1.132813h-476.984376c-1.175781 0-1.816406-.710938-2.089843-1.132813-.277344-.421875-.667969-1.289062-.199219-2.363281l11.667969-26.617187c.394531-.90625 1.292969-1.492188 2.285156-1.492188h25.738281c4.144532 0 7.5-3.359375 7.5-7.5s-3.355468-7.5-7.5-7.5h-25.738281c-6.949219 0-13.238281 4.109375-16.027344 10.472656l-11.664062 26.613282c-2.378907 5.429687-1.863281 11.632812 1.378906 16.59375 3.246094 4.960937 8.71875 7.925781 14.648437 7.925781zm458.957032 11.953125c0 1.378906-1.121094 2.496094-2.496094 2.496094h-435.9375c-1.375 0-2.496094-1.117188-2.496094-2.496094v-11.953125h440.929688zm0 0"/><path d="m31 114.574219v50c0 4.140625 3.359375 7.5 7.5 7.5s7.5-3.359375 7.5-7.5v-50c0-4.140625-3.359375-7.5-7.5-7.5s-7.5 3.355469-7.5 7.5zm0 0"/><path d="m60 114.574219v30c0 4.140625 3.359375 7.5 7.5 7.5s7.5-3.359375 7.5-7.5v-30c0-4.140625-3.359375-7.5-7.5-7.5s-7.5 3.355469-7.5 7.5zm0 0"/><path d="m89 114.574219v30c0 4.140625 3.359375 7.5 7.5 7.5s7.5-3.359375 7.5-7.5v-30c0-4.140625-3.359375-7.5-7.5-7.5s-7.5 3.355469-7.5 7.5zm0 0"/><path d="m118 114.574219v30c0 4.140625 3.359375 7.5 7.5 7.5s7.5-3.359375 7.5-7.5v-30c0-4.140625-3.359375-7.5-7.5-7.5s-7.5 3.355469-7.5 7.5zm0 0"/><path d="m147 114.574219v70c0 4.140625 3.359375 7.5 7.5 7.5s7.5-3.359375 7.5-7.5v-70c0-4.140625-3.359375-7.5-7.5-7.5s-7.5 3.355469-7.5 7.5zm0 0"/><path d="m176 114.574219v90c0 4.140625 3.359375 7.5 7.5 7.5s7.5-3.359375 7.5-7.5v-90c0-4.140625-3.359375-7.5-7.5-7.5s-7.5 3.355469-7.5 7.5zm0 0"/><path d="m205 114.574219v38c0 4.140625 3.359375 7.5 7.5 7.5s7.5-3.359375 7.5-7.5v-38c0-4.140625-3.359375-7.5-7.5-7.5s-7.5 3.355469-7.5 7.5zm0 0"/><path d="m234 114.574219v30c0 4.140625 3.359375 7.5 7.5 7.5s7.5-3.359375 7.5-7.5v-30c0-4.140625-3.359375-7.5-7.5-7.5s-7.5 3.355469-7.5 7.5zm0 0"/><path d="m263 114.574219v30c0 4.140625 3.359375 7.5 7.5 7.5s7.5-3.359375 7.5-7.5v-30c0-4.140625-3.359375-7.5-7.5-7.5s-7.5 3.355469-7.5 7.5zm0 0"/><path d="m292 114.574219v38c0 4.140625 3.359375 7.5 7.5 7.5s7.5-3.359375 7.5-7.5v-38c0-4.140625-3.359375-7.5-7.5-7.5s-7.5 3.355469-7.5 7.5zm0 0"/><path d="m321 114.574219v90c0 4.140625 3.359375 7.5 7.5 7.5s7.5-3.359375 7.5-7.5v-90c0-4.140625-3.359375-7.5-7.5-7.5s-7.5 3.355469-7.5 7.5zm0 0"/><path d="m350 114.574219v70c0 4.140625 3.359375 7.5 7.5 7.5s7.5-3.359375 7.5-7.5v-70c0-4.140625-3.359375-7.5-7.5-7.5s-7.5 3.355469-7.5 7.5zm0 0"/><path d="m379 114.574219v30c0 4.140625 3.359375 7.5 7.5 7.5s7.5-3.359375 7.5-7.5v-30c0-4.140625-3.359375-7.5-7.5-7.5s-7.5 3.355469-7.5 7.5zm0 0"/><path d="m408 114.574219v30c0 4.140625 3.359375 7.5 7.5 7.5s7.5-3.359375 7.5-7.5v-30c0-4.140625-3.359375-7.5-7.5-7.5s-7.5 3.355469-7.5 7.5zm0 0"/><path d="m437 114.574219v30c0 4.140625 3.359375 7.5 7.5 7.5s7.5-3.359375 7.5-7.5v-30c0-4.140625-3.359375-7.5-7.5-7.5s-7.5 3.355469-7.5 7.5zm0 0"/><path d="m466 114.574219v50c0 4.140625 3.359375 7.5 7.5 7.5s7.5-3.359375 7.5-7.5v-50c0-4.140625-3.359375-7.5-7.5-7.5s-7.5 3.355469-7.5 7.5zm0 0"/></svg>