<svg height="512pt" viewBox="0 0 512 512" width="512pt" xmlns="http://www.w3.org/2000/svg"><path d="m502 0c-5.523438 0-10 4.476562-10 10v44.128906h-13.28125c-5.523438 0-10 4.476563-10 10 0 5.519532 4.476562 10 10 10h13.28125v172h-13.28125c-5.523438 0-10 4.476563-10 10 0 5.519532 4.476562 10 10 10h13.28125v172h-13.28125c-5.523438 0-10 4.476563-10 10 0 5.519532 4.476562 10 10 10h13.28125v43.871094c0 5.523438 4.476562 10 10 10s10-4.476562 10-10v-492c0-5.523438-4.476562-10-10-10zm0 0"/><path d="m10 186h147.019531c11.355469 0 22.03125-4.535156 30.066407-12.769531 8.167968-8.378907 12.6875-19.898438 12.394531-31.605469-.480469-19.253906-16.546875-34.515625-35.792969-34.050781-15.800781.394531-28.332031 13.570312-27.941406 29.371093.140625 5.519532 4.75 9.871094 10.246094 9.746094 5.523437-.136718 9.886718-4.722656 9.75-10.246094-.121094-4.773437 3.667968-8.757812 8.445312-8.875 8.226562-.230468 15.09375 6.324219 15.300781 14.554688.15625 6.351562-2.292969 12.597656-6.722656 17.140625-4.234375 4.34375-9.828125 6.734375-15.746094 6.734375h-147.019531c-5.523438 0-10 4.476562-10 10s4.476562 10 10 10zm0 0"/><path d="m175.90625 326h-60.152344c-5.523437 0-10 4.476562-10 10s4.476563 10 10 10h60.152344c5.523438 0 10-4.476562 10-10s-4.476562-10-10-10zm0 0"/><path d="m216 326c-2.628906 0-5.210938 1.070312-7.070312 2.929688-1.859376 1.859374-2.929688 4.441406-2.929688 7.070312s1.070312 5.210938 2.929688 7.070312c1.859374 1.859376 4.441406 2.929688 7.070312 2.929688s5.210938-1.070312 7.070312-2.929688c1.859376-1.859374 2.929688-4.441406 2.929688-7.070312s-1.070312-5.210938-2.929688-7.070312c-1.859374-1.859376-4.441406-2.929688-7.070312-2.929688zm0 0"/><path d="m82.289062 270c-2.628906 0-5.210937 1.070312-7.070312 2.929688-1.859375 1.859374-2.929688 4.441406-2.929688 7.070312s1.070313 5.210938 2.929688 7.070312c1.859375 1.859376 4.441406 2.929688 7.070312 2.929688 2.632813 0 5.210938-1.070312 7.070313-2.929688 1.859375-1.859374 2.929687-4.441406 2.929687-7.070312s-1.070312-5.210938-2.929687-7.070312c-1.859375-1.859376-4.4375-2.929688-7.070313-2.929688zm0 0"/><path d="m53.652344 326h-43.652344c-5.523438 0-10 4.476562-10 10s4.476562 10 10 10h43.652344c5.523437 0 10-4.476562 10-10s-4.476563-10-10-10zm0 0"/><path d="m370.222656 326.96875c.375-15.042969-5.429687-29.835938-15.925781-40.597656-10.296875-10.558594-23.976563-16.371094-38.515625-16.371094h-192.113281c-5.523438 0-10 4.476562-10 10s4.476562 10 10 10h192.113281c9.101562 0 17.699219 3.671875 24.199219 10.335938 6.753906 6.921874 10.488281 16.449218 10.246093 26.132812-.324218 13.097656-11.082031 23.53125-24.117187 23.53125-.199219 0-.40625-.003906-.609375-.007812-8.570312-.214844-15.371094-7.363282-15.160156-15.9375.125-5.03125 4.300781-9.019532 9.355468-8.898438 5.515626.117188 10.105469-4.226562 10.246094-9.746094.136719-5.519531-4.226562-10.109375-9.75-10.246094-16.070312-.382812-29.445312 12.335938-29.84375 28.394532-.488281 19.597656 15.058594 35.9375 34.65625 36.425781.371094.007813.742188.015625 1.113282.015625 23.828124-.003906 43.507812-19.078125 44.105468-43.03125zm0 0"/><path d="m322.347656 225.628906c10.492188-10.761718 16.296875-25.558594 15.921875-40.597656-.292969-11.785156-5.160156-22.75-13.699219-30.875-8.542968-8.125-19.746093-12.433594-31.519531-12.144531-19.597656.492187-35.144531 16.832031-34.65625 36.429687.402344 16.054688 13.753907 28.777344 29.847657 28.394532 5.519531-.140626 9.882812-4.726563 9.746093-10.246094-.136719-5.523438-4.742187-9.871094-10.246093-9.75-2.453126.046875-4.753907-.832032-6.519532-2.511719s-2.773437-3.949219-2.832031-6.386719c-.214844-8.574218 6.585937-15.71875 15.160156-15.933594 13.285157-.351562 24.394531 10.21875 24.726563 23.523438.242187 9.683594-3.496094 19.207031-10.25 26.132812-6.5 6.664063-15.09375 10.335938-24.199219 10.335938h-219.828125c-5.523438 0-10 4.476562-10 10s4.476562 10 10 10h219.828125c14.542969 0 28.222656-5.8125 38.519531-16.371094zm0 0"/><path d="m461.28125 342h-13.28125v-172h13.28125c5.523438 0 10-4.476562 10-10s-4.476562-10-10-10h-13.28125v-140c0-5.523438-4.476562-10-10-10s-10 4.476562-10 10v142.597656c-10.945312-27.058594-26.246094-52.335937-45.539062-74.972656h8.238281c5.523437 0 10-4.476562 10-10s-4.476563-10-10-10h-31.398438c-5.523437 0-10 4.476562-10 10v31.398438c0 5.523437 4.476563 10 10 10 5.523438 0 10-4.476563 10-10v-5.976563c38.003907 45.730469 58.699219 102.75 58.699219 162.953125s-20.695312 117.222656-58.699219 162.953125v-5.976563c0-5.523437-4.476562-10-10-10-5.523437 0-10 4.476563-10 10v31.398438c0 5.523438 4.476563 10 10 10h31.398438c5.523437 0 10-4.476562 10-10s-4.476563-10-10-10h-8.238281c19.296874-22.636719 34.59375-47.914062 45.539062-74.972656v142.597656c0 5.523438 4.476562 10 10 10s10-4.476562 10-10v-140h13.28125c5.523438 0 10-4.476562 10-10s-4.476562-10-10-10zm0 0"/></svg>